<?xml version="1.0" ?><!DOCTYPE svg  PUBLIC '-//W3C//DTD SVG 1.1//EN'  'http://www.w3.org/Graphics/SVG/1.1/DTD/svg11.dtd'><!-- Uploaded to: SVG Repo, www.svgrepo.com, Generator: SVG Repo Mixer Tools -->
<svg fill="#000000" width="800px" height="800px" viewBox="0 0 64 64" enable-background="new 0 0 64 64" id="Layer_1" version="1.1" xml:space="preserve" xmlns="http://www.w3.org/2000/svg" xmlns:xlink="http://www.w3.org/1999/xlink"><path d="M34.48,33.048c-2.416,0-5.001-0.032-7.828-0.096c-0.552-0.012-0.99-0.47-0.977-1.022c0.012-0.553,0.511-1.016,1.022-0.977  c3.95,0.09,7.424,0.116,10.617,0.08c0.004,0,0.008,0,0.011,0c0.547,0,0.994,0.44,1,0.989c0.006,0.552-0.437,1.005-0.989,1.011  C36.409,33.042,35.458,33.048,34.48,33.048z"/><path d="M40.835,47.818c-0.582,0-1.97-0.008-3.751-0.018c-4.401-0.025-11.215-0.064-14.206-0.03c0,0,0,0-0.001,0  c-3.324,0-7.83-2.253-7.842-6.482c-0.006-2.208,0.012-4.117,0.029-5.955c0.027-2.926,0.053-5.69-0.024-9.208  c-0.129-5.882,2.456-9.413,7.092-9.688c2.534-0.151,7.256-0.256,11.484-0.256c4.166,0,9.432,0.094,10.863,0.544  c2.574,0.808,4.038,3.591,4.308,5.835c0.31,2.564,0.142,11.354,0.052,16.077c-0.026,1.34-0.045,2.346-0.045,2.772  c0,1.804-0.802,3.443-2.259,4.618C45.081,47.199,43.109,47.818,40.835,47.818z M26.091,45.758c3.355,0,7.813,0.025,11.004,0.043  c1.776,0.01,3.159,0.018,3.74,0.018c1.787,0,3.366-0.479,4.445-1.348c0.991-0.798,1.514-1.856,1.514-3.059  c0-0.433,0.019-1.453,0.045-2.812c0.089-4.674,0.255-13.374-0.038-15.8c-0.202-1.678-1.271-3.648-2.921-4.166  c-0.696-0.219-3.758-0.452-10.265-0.452c-4.193,0-8.866,0.104-11.366,0.252c-4.439,0.264-5.284,4.305-5.21,7.648  c0.078,3.549,0.052,6.328,0.024,9.271c-0.017,1.831-0.035,3.731-0.029,5.93c0.008,2.89,3.416,4.489,5.768,4.489  C23.687,45.762,24.808,45.758,26.091,45.758z"/></svg>